<mxfile host="app.diagrams.net" modified="2024-06-14T11:47:14.857Z" agent="Mozilla/5.0 (Windows NT 10.0; Win64; x64) AppleWebKit/537.36 (KHTML, like Gecko) Chrome/125.0.0.0 Safari/537.36" etag="Xo-HI5sTTrWRN731HenG" version="24.5.4" type="github">
  <diagram name="Page-1" id="e7e014a7-5840-1c2e-5031-d8a46d1fe8dd">
    <mxGraphModel dx="1760" dy="852" grid="1" gridSize="10" guides="1" tooltips="1" connect="1" arrows="1" fold="1" page="1" pageScale="1" pageWidth="1169" pageHeight="826" background="none" math="0" shadow="0">
      <root>
        <mxCell id="0" />
        <mxCell id="1" parent="0" />
        <mxCell id="DYA4YHvUi6z84xLvEgc4-41" value="" style="rounded=0;whiteSpace=wrap;html=1;" vertex="1" parent="1">
          <mxGeometry x="80" y="80" width="1000" height="680" as="geometry" />
        </mxCell>
        <mxCell id="DYA4YHvUi6z84xLvEgc4-55" value="" style="edgeStyle=orthogonalEdgeStyle;rounded=0;orthogonalLoop=1;jettySize=auto;html=1;" edge="1" parent="1" source="DYA4YHvUi6z84xLvEgc4-46" target="DYA4YHvUi6z84xLvEgc4-54">
          <mxGeometry relative="1" as="geometry" />
        </mxCell>
        <mxCell id="DYA4YHvUi6z84xLvEgc4-46" value="" style="ellipse;html=1;shape=startState;fillColor=#000000;strokeColor=#ff0000;direction=north;" vertex="1" parent="1">
          <mxGeometry x="138" y="245" width="30" height="30" as="geometry" />
        </mxCell>
        <mxCell id="DYA4YHvUi6z84xLvEgc4-54" value="" style="whiteSpace=wrap;html=1;" vertex="1" parent="1">
          <mxGeometry x="440" y="230" width="210" height="60" as="geometry" />
        </mxCell>
        <mxCell id="DYA4YHvUi6z84xLvEgc4-56" value="&lt;font style=&quot;font-size: 24px;&quot;&gt;Ajouter un Ã©tudiant&lt;/font&gt;" style="text;html=1;align=center;verticalAlign=middle;whiteSpace=wrap;rounded=0;" vertex="1" parent="1">
          <mxGeometry x="190" y="220" width="210" height="30" as="geometry" />
        </mxCell>
        <mxCell id="DYA4YHvUi6z84xLvEgc4-57" value="&lt;font style=&quot;font-size: 24px;&quot;&gt;En Attente&lt;/font&gt;" style="text;html=1;align=center;verticalAlign=middle;whiteSpace=wrap;rounded=0;" vertex="1" parent="1">
          <mxGeometry x="440" y="245" width="210" height="30" as="geometry" />
        </mxCell>
      </root>
    </mxGraphModel>
  </diagram>
</mxfile>
